<?xml version="1.0" encoding="UTF-8"?><!DOCTYPE svg PUBLIC "-//W3C//DTD SVG 1.1//EN" "http://www.w3.org/Graphics/SVG/1.1/DTD/svg11.dtd"><svg xmlns="http://www.w3.org/2000/svg" xmlns:xlink="http://www.w3.org/1999/xlink"><defs><path id="vtjha" d="M1424 311a3 3 0 1 1 6 0 3 3 0 0 1-6 0z"/><path id="vtjhb" d="M1434 305a3 3 0 1 1 6 0 3 3 0 0 1-6 0z"/><path id="vtjhc" d="M1434 317a3 3 0 1 1 6 0 3 3 0 0 1-6 0z"/><path id="vtjhg" d="M1434.5 306.5l-5 3"/><path id="vtjhh" d="M1434.5 315.5l-5-3"/><clipPath id="vtjhd"><use fill="#fff" xlink:href="#vtjha"/></clipPath><clipPath id="vtjhe"><use fill="#fff" xlink:href="#vtjhb"/></clipPath><clipPath id="vtjhf"><use fill="#fff" xlink:href="#vtjhc"/></clipPath></defs><symbol id="icon-arrow-comment" viewBox="0 0 9 6">
<g stroke-miterlimit="50"><g transform="translate(-980 -742)">
<path id="6kzka" d="M989 747h-7v-5"/>
<path id="6kzkb" d="M980 744l2-2 2 2"/>

</g></g></symbol><symbol id="icon-arrow" viewBox="0 0 12 8">
<g stroke-miterlimit="50">
	<g transform="translate(-368 -48)">
		<path id="k66ja" d="M369 49l5 5 5-5"/>
	</g>
	</g>
</symbol><symbol id="icon-avatar" viewBox="0 0 40 36">
<g><g transform="translate(-868 -733)">

<path id="3zvra" d="M888 741.995c-3.86 0-7 3.139-7 6.997s3.14 6.996 7 6.996 7-3.138 7-6.996c0-3.858-3.14-6.997-7-6.997zM875.256 768.4l-.002-.002A19.942 19.942 0 0 1 868 752.99c0-11.023 8.972-19.99 20-19.99s20 8.967 20 19.99a19.936 19.936 0 0 1-7.256 15.407c-1.219-6.032-6.578-10.41-12.743-10.41-6.166 0-11.526 4.378-12.744 10.41z"/>
</g></g></symbol><symbol id="icon-basket" viewBox="0 0 512 512">
<g>
	<g>
		<path d="M465.423,48.241h-137.61V23.955C327.813,10.746,317.082,0,303.893,0h-95.785c-13.19,0-23.92,10.746-23.92,23.955V48.24
			H46.577c-6.655,0-12.049,5.394-12.049,12.049c0,6.655,5.394,12.049,12.049,12.049h22.332l15.228,396.396
			C85.069,492.995,104.818,512,129.099,512h253.804c24.281,0,44.03-19.006,44.96-43.267l15.228-396.396h22.332
			c6.653,0,12.049-5.394,12.049-12.049C477.472,53.635,472.078,48.241,465.423,48.241z M208.285,24.097h95.43v24.143h-95.43V24.097z
			 M403.784,467.809c-0.433,11.268-9.605,20.094-20.882,20.094H129.099c-11.276,0-20.448-8.827-20.882-20.095L93.025,72.338h325.952
			L403.784,467.809z"/>
	</g>
</g>
<g>
	<g>
		<path d="M182.63,181.571c-0.127-6.575-5.494-11.817-12.042-11.817c-0.078,0-0.158,0-0.236,0.002
			c-6.652,0.128-11.943,5.626-11.815,12.278l3.781,196.634c0.126,6.575,5.495,11.817,12.042,11.817c0.078,0,0.158,0,0.236-0.002
			c6.653-0.128,11.943-5.624,11.815-12.278L182.63,181.571z"/>
	</g>
</g>
<g>
	<g>
		<path d="M255.998,169.753c-6.654,0-12.049,5.394-12.049,12.049v196.634c0,6.654,5.394,12.049,12.049,12.049
			c6.655,0,12.049-5.394,12.049-12.049V181.802C268.047,175.148,262.653,169.753,255.998,169.753z"/>
	</g>
</g>
<g>
	<g>
		<path d="M341.645,169.756c-6.628-0.147-12.151,5.162-12.278,11.815l-3.781,196.634c-0.129,6.653,5.162,12.15,11.815,12.278
			c0.078,0.001,0.158,0.002,0.236,0.002c6.546,0,11.916-5.244,12.042-11.817l3.781-196.634
			C353.588,175.38,348.299,169.883,341.645,169.756z"/>
	</g>
</g>
<g>
</g>
<g>
</g>
<g>
</g>
<g>
</g>
<g>
</g>
<g>
</g>
<g>
</g>
<g>
</g>
<g>
</g>
<g>
</g>
<g>
</g>
<g>
</g>
<g>
</g>
<g>
</g>
<g>
</g>
</symbol><symbol id="icon-bell" viewBox="0 0 27 28">
<g stroke-miterlimit="50">
	<g transform="translate(-1804 -38)">
		<path id="zoc3a" d="M1828.264 61.264h-22c-.552 0-1-.449-1-1v-2.257a4.52 4.52 0 0 0 2.972-3.743l.027-.5v-5.5c0-4.963 4.038-9 9-9 4.963 0 9 4.037 9 9v6c.216 1.706 1.394 3.176 3 3.744v2.255c0 .552-.448 1-.999 1z"/>
		<path id="zoc3b" d="M1817.263 64.263c-1.654 0-3-1.346-3-3h6c0 1.655-1.346 3-3 3z"/>
	</g>
</g>
</symbol><symbol id="icon-calc" viewBox="0 0 14 14">
<g><g transform="translate(-1256 -233)">
<path id="vcu5a" d="M1267 235a1.001 1.001 0 0 1 0 2h-8c-.552 0-1.001-.45-1.001-1.001 0-.551.45-.999 1.001-.999zm-7.001 5a1 1 0 1 1-2-.002 1 1 0 0 1 2 .003zm4.002 0a1.001 1.001 0 0 1-2 0c0-.551.448-1 .999-1 .552 0 1.001.449 1.001 1zm4 0a1.001 1.001 0 1 1-2.002-.004 1.001 1.001 0 0 1 2.002.005zm-8.002 4a1.001 1.001 0 1 1-2.002 0 1.001 1.001 0 0 1 2.002 0zm4.002 0a1.001 1.001 0 1 1 0 0zm4 0a1.002 1.002 0 0 1-2.003 0 1.003 1.003 0 0 1 2.003 0zm2 .999V235c0-1.103-.897-2-2-2h-10.002c-1.103 0-2 .897-2 2v9.999c0 1.103.897 2 2 2h10.002c1.103 0 2-.897 2-2z"/>
</g></g></symbol><symbol id="icon-calc2" viewBox="0 0 14 14">
<g><g transform="translate(-1256 -233)">
<path id="vcu5a" d="M1267 235a1.001 1.001 0 0 1 0 2h-8c-.552 0-1.001-.45-1.001-1.001 0-.551.45-.999 1.001-.999zm-7.001 5a1 1 0 1 1-2-.002 1 1 0 0 1 2 .003zm4.002 0a1.001 1.001 0 0 1-2 0c0-.551.448-1 .999-1 .552 0 1.001.449 1.001 1zm4 0a1.001 1.001 0 1 1-2.002-.004 1.001 1.001 0 0 1 2.002.005zm-8.002 4a1.001 1.001 0 1 1-2.002 0 1.001 1.001 0 0 1 2.002 0zm4.002 0a1.001 1.001 0 1 1 0 0zm4 0a1.002 1.002 0 0 1-2.003 0 1.003 1.003 0 0 1 2.003 0zm2 .999V235c0-1.103-.897-2-2-2h-10.002c-1.103 0-2 .897-2 2v9.999c0 1.103.897 2 2 2h10.002c1.103 0 2-.897 2-2z"/>

<use fill="#e6e6e6" xlink:href="#vcu5a"/></g></g></symbol><symbol id="icon-comment-2" viewBox="0 0 12 11">
<g><g transform="translate(-821 -737)"><path id="bd86a" d="M821 737h12v8.097h-6L823 748v-2.903h-2z"/>
</g></g></symbol><symbol id="icon-comment-sm" viewBox="0 0 14 15">

<g stroke-miterlimit="50">
	<g transform="translate(-665 -529)">
		<path id="o9g6a" d="M666 530h12v9.097h-4L669 542v-2.903h-3z"/>
	</g>
</g>
</symbol><symbol id="icon-comment" viewBox="0 0 27 25">

<g stroke-miterlimit="50">
	<g transform="translate(-1755 -40)">
		<path id="wosza" d="M1756 41h25v18h-14.62l-6.38 4v-4h-4z"/>
		<path id="woszb" d="M1760 47h17"/>
		<path id="woszc" d="M1760 52h10"/>
	</g>
</g>
</symbol><symbol id="icon-connection" viewBox="0 0 14 14">
<g><g transform="translate(-507 -1103)">
<path id="uw6pa" d="M508 1117a1 1 0 1 0 0-2 1 1 0 0 0 0 2zm5-1a1 1 0 0 0 2.001 0v-.003c0-3.857-3.139-6.996-7.001-6.996a1 1 0 0 0 0 2.001l.063-.002a4.97 4.97 0 0 1 3.472 1.465 4.984 4.984 0 0 1 1.462 3.535H513zm6 .002a1 1 0 0 0 1.999 0h.002V1116c-.002-7.14-5.79-12.953-12.922-12.996-.025-.003-.054-.003-.079-.003a.999.999 0 1 0 0 1.998c2.933 0 5.693 1.146 7.775 3.225a10.94 10.94 0 0 1 3.225 7.778z"/>


</g></g></symbol><symbol id="icon-download" viewBox="0 0 12 13">
<g><g transform="translate(-699 -891)">
<path id="uetla" d="M702.464 896.414a1 1 0 0 1 1.414 0l.122.122V892a1 1 0 0 1 2 0v4.585l.171-.172a1.001 1.001 0 0 1 1.414 1.415l-1.413 1.414a.99.99 0 0 1-.272.193.999.999 0 0 1-1.816-.035 1.01 1.01 0 0 1-.206-.158l-1.414-1.414a.998.998 0 0 1 0-1.414zM700 902h10a1 1 0 0 1 0 2.001h-10a1 1 0 0 1 0-2z"/>
</g></g></symbol><symbol id="icon-entry" viewBox="0 0 12 12">
<g><g transform="translate(-515 -1054)">
<path id="r0vba" d="M519.414 1062.536a1 1 0 0 1 0-1.414l.122-.122H516a1 1 0 0 1 0-2h3.585l-.172-.172a1.001 1.001 0 0 1 1.415-1.413l1.414 1.413a.99.99 0 0 1 .194.272.999.999 0 0 1-.036 1.816 1.01 1.01 0 0 1-.158.206l-1.414 1.414a.998.998 0 0 1-1.414 0zM520 1066a1 1 0 0 1 0-2h5v-8h-5a1 1 0 0 1 0-2h6.001a1 1 0 0 1 1 1v10a1 1 0 0 1-1 1z"/>
</g></g></symbol><symbol id="icon-eye" viewBox="0 0 31 15">

<g stroke-miterlimit="50"><g transform="translate(-594 -749)">
<path id="w9cpa" d="M609.5 762.957c-7.456 0-13.5-7.5-13.5-7.5s6.044-5.5 13.5-5.5 13.5 5.5 13.5 5.5-6.044 7.5-13.5 7.5z"/>
<path id="w9cpb" d="M609.5 757.957a5.5 5.5 0 0 1-5.5-5.5c0-.407.044-.804.224-1.515.862-.899 9.113-1.176 10.588.053.082.224.188.83.188 1.462a5.5 5.5 0 0 1-5.5 5.5z"/>

</g></g></symbol><symbol id="icon-fb" viewBox="0 0 10 21">

<g><g transform="translate(-1650 -151)">
<path id="p1qpa" d="M1659.09 161.331h-2.802v9.995h-4.153v-9.995h-1.974v-3.53h1.974v-2.284c0-1.635.776-4.191 4.19-4.191l3.077.011v3.428h-2.233a.845.845 0 0 0-.88.965v2.074h3.164z"/>
</g></g></symbol><symbol id="icon-feedback" viewBox="0 0 20 19">


<g stroke-miterlimit="50">
	<g transform="translate(-1850 -1011)">
		<g>
		<path id="9jeda" d="M1851.5 1012.5h12v11h-7l-3 2v-2h-2z"/>
		</g>
		<g>
		<path id="9jedb" d="M1858.5 1023.5v3h4l4 2v-2h2v-7h-5"/>
		</g>
	</g>
</g>
</symbol><symbol id="icon-filter" viewBox="0 0 20 22">

<g stroke-miterlimit="50"><g transform="translate(-275 -175)">
<path fill="none" id="5ry5a" d="M293 175v22"/>
<path fill="none" id="5ry5b" d="M277 175v22"/>
<path fill="none" id="5ry5c" d="M285 175v22"/>
<path stroke="none" id="5ry5d" d="M275 181a2 2 0 1 1 4 0 2 2 0 0 1-4 0z"/>
<path stroke="none" id="5ry5e" d="M283 191a2 2 0 1 1 4 0 2 2 0 0 1-4 0z"/>
<path stroke="none" id="5ry5f" d="M291 184a2 2 0 1 1 4 0 2 2 0 0 1-4 0z"/>
</g></g></symbol><symbol id="icon-google" viewBox="0 0 20 21">
<g><g transform="translate(-1795 -150)">
<path id="uzica" d="M1804.896 162.774v-3.72h9.36c.14.63.25 1.22.25 2.05 0 5.71-3.83 9.77-9.6 9.77-5.52 0-10-4.48-10-10s4.48-10 10-10c2.7 0 4.96.99 6.69 2.61l-2.84 2.76c-.72-.68-1.98-1.48-3.85-1.48-3.31 0-6.01 2.75-6.01 6.12s2.7 6.12 6.01 6.12c3.83 0 5.24-2.65 5.5-4.22h-5.51z"/>
</g></g></symbol><symbol id="icon-heart" viewBox="0 0 12 11">
<g><g transform="translate(-1428 -564)">
<path id="bskua" d="M1428.113 567.816A3.004 3.004 0 0 1 1431 564a3 3 0 0 1 3 3 3 3 0 1 1 5.81 1.054c-.986 3.094-5.782 6.232-5.782 6.232s-5.09-3.354-5.915-6.47z"/>
</g></g></symbol><symbol id="icon-ok" viewBox="0 0 13 22">
<g><g transform="translate(-1849 -150)">
<path id="9bcla" d="M1861.217 163.337a6.347 6.347 0 0 1-2.3 1.487c-.842.303-1.72.5-2.61.585.134.147.198.219.282.302 1.207 1.215 2.425 2.424 3.626 3.643.395.358.506.934.271 1.413a1.428 1.428 0 0 1-1.34.837 1.304 1.304 0 0 1-.85-.434c-.914-.918-1.844-1.82-2.738-2.755-.261-.272-.385-.22-.615.016-.918.945-1.85 1.875-2.79 2.8a1.168 1.168 0 0 1-1.41.254 1.429 1.429 0 0 1-.825-1.316 1.32 1.32 0 0 1 .442-.882c1.197-1.195 2.392-2.392 3.585-3.59.079-.08.152-.163.267-.287a8.162 8.162 0 0 1-4.353-1.553 5.565 5.565 0 0 1-.459-.378 1.305 1.305 0 0 1 1.477-2.126c.126.061.247.132.362.213a7.132 7.132 0 0 0 7.907.072 2.16 2.16 0 0 1 .772-.397 1.207 1.207 0 0 1 1.383.552c.366.462.33 1.124-.084 1.544zm-5.95-12.717a5.314 5.314 0 1 1-5.332 5.303 5.311 5.311 0 0 1 5.332-5.305zm-.007 7.916a2.6 2.6 0 1 0-2.617-2.574 2.583 2.583 0 0 0 2.617 2.575z"/>
</g></g></symbol><symbol id="icon-pay" viewBox="0 0 14 11">
<g><g transform="translate(-839 -466)">
<path id="kebsa" d="M840 477a1 1 0 1 1 0-2h.805a5.984 5.984 0 0 1-.805-3c0-3.308 2.692-6 6-6 3.309 0 6 2.692 6 6 0 1.054-.278 2.091-.805 3h-2.552a4.002 4.002 0 0 0 1.357-3c0-2.206-1.795-4-4-4-2.206 0-4 1.794-4 4 0 1.146.495 2.24 1.357 3H852a1 1 0 1 1 0 2z"/>

</g></g></symbol><symbol id="icon-search" viewBox="0 0 21 21">
	<g>
		<g transform="translate(-1439 -203)">
		<path id="wmpma" d="M1447.434 207.076a6.007 6.007 0 0 0 .001 8.485 6.007 6.007 0 0 0 8.485 0 6.007 6.007 0 0 0 0-8.485 6.007 6.007 0 0 0-8.486 0zm-7.777 14.849l5.7-5.701c-2.437-3.136-2.216-7.683.663-10.562 3.12-3.12 8.195-3.12 11.314 0 3.12 3.119 3.12 8.194 0 11.314-2.88 2.879-7.427 3.1-10.562.662l-5.701 5.7a1 1 0 1 1-1.414-1.413z"/>
		</g>
	</g>
</symbol><symbol id="icon-security" viewBox="0 0 19 24">
<g stroke-miterlimit="50"><g transform="translate(-490 -979)">
<path id="m9sqa" d="M499.512 980.045l8.53 3.278v7.897c0 2.72-1.266 5.29-3.427 6.966l-5.103 3.874-5.103-3.874c-2.16-1.639-3.427-4.247-3.427-6.966v-7.897l8.53-3.278"/>
</g></g></symbol><symbol id="icon-share" viewBox="0 0 16 18">


<g stroke-miterlimit="50"><g transform="translate(-1424 -302)">
	<path style="-webkit-clip-path: circle(50% at 50% 50%); clip-path: circle(50% at 50% 50%)" id="xmdja" d="M1424 311a3 3 0 1 1 6 0 3 3 0 0 1-6 0z"/>
	<path style="-webkit-clip-path: circle(50% at 50% 50%); clip-path: circle(50% at 50% 50%)" id="xmdjb" d="M1434 305a3 3 0 1 1 6 0 3 3 0 0 1-6 0z"/>
	<path style="-webkit-clip-path: circle(50% at 50% 50%); clip-path: circle(50% at 50% 50%)" id="xmdjc" d="M1434 317a3 3 0 1 1 6 0 3 3 0 0 1-6 0z"/>
	<path stroke-width="1" id="xmdjg" d="M1434.5 306.5l-5 3"/>
	<path stroke-width="1" id="xmdjh" d="M1434.5 315.5l-5-3"/>
	

</g></g>



</symbol><symbol id="icon-share2" viewBox="0 0 16 18"><g><g transform="translate(-1424 -302)"><g><use fill="#fff" fill-opacity="0" stroke="#3accc6" stroke-miterlimit="50" stroke-width="2" clip-path="url(&quot;#vtjhd&quot;)" xlink:href="#vtjha"/></g><g><use fill="#fff" fill-opacity="0" stroke="#3accc6" stroke-miterlimit="50" stroke-width="2" clip-path="url(&quot;#vtjhe&quot;)" xlink:href="#vtjhb"/></g><g><use fill="#fff" fill-opacity="0" stroke="#3accc6" stroke-miterlimit="50" stroke-width="2" clip-path="url(&quot;#vtjhf&quot;)" xlink:href="#vtjhc"/></g><g><use fill="#fff" fill-opacity="0" stroke="#3accc6" stroke-miterlimit="50" xlink:href="#vtjhg"/></g><g><use fill="#fff" fill-opacity="0" stroke="#3accc6" stroke-miterlimit="50" xlink:href="#vtjhh"/></g></g></g></symbol><symbol id="icon-star-2" viewBox="0 0 12 11">
<g><g transform="translate(-820 -524)">
<path id="3a5ra" d="M826 524l2.1 3.294 3.9.907-2.603 2.942.311 3.854-3.708-1.473L822.29 535l.311-3.854-2.602-2.943 3.9-.907z"/>

</g></g></symbol><symbol id="icon-star" viewBox="0 0 18 17">

<g stroke-miterlimit="50">
	<g transform="translate(-1535 -42)">
		<path id="1d74a" d="M1544 44l2.45 3.893 4.55 1.071-3.036 3.478.362 4.555-4.326-1.74-4.327 1.743.363-4.555-3.036-3.478 4.55-1.071z"/>
	</g>
</g>
</symbol><symbol id="icon-twitter" viewBox="0 0 21 17">
<g><g transform="translate(-1745 -153)">
<path id="rhgxa" d="M1765.44 154.96c-.722.34-1.495.56-2.287.65a4.44 4.44 0 0 0 1.725-2.242 6.75 6.75 0 0 1-2.576.913 4.125 4.125 0 0 0-7.112 2.85c.001.308.035.616.1.918a11.9 11.9 0 0 1-8.738-4.278 4.135 4.135 0 0 0 1.25 5.45 2.642 2.642 0 0 1-1.8-.465 3.977 3.977 0 0 0 3.188 4.03 3.257 3.257 0 0 1-1.725.126 3.914 3.914 0 0 0 3.688 2.801 6.75 6.75 0 0 1-5.713 1.711 12.4 12.4 0 0 0 6.462 1.825 11.451 11.451 0 0 0 11.538-12.048v-.138a6.902 6.902 0 0 0 2-2.102z"/>

</g></g></symbol><symbol id="icon-user-2" viewBox="0 0 10 11">
<g><g transform="translate(-821 -627)">
<path id="ats6a" d="M823.344 629.855c0-1.577 1.22-2.856 2.726-2.856 1.505 0 2.725 1.28 2.725 2.856 0 1.577-1.22 2.856-2.725 2.856-1.505 0-2.726-1.279-2.726-2.856zM831.07 638h-10c.39-2.591 2.492-4.471 5-4.471s4.61 1.88 5 4.47V638z"/>
</g></g></symbol><symbol id="icon-user" viewBox="0 0 26 28">
<g>
	<g transform="translate(-1854 -36)">
	<path id="1skba" d="M1861 44c0 3.309 2.691 6 6 6s6-2.691 6-6c0-3.308-2.691-6-6-6s-6 2.692-6 6zm17 19a10.93 10.93 0 0 0-3.225-7.775 10.925 10.925 0 0 0-7.776-3.225c-6.065 0-11 4.934-11 11a1 1 0 1 1-2 0c.002-5.657 3.634-10.482 8.689-12.264A8.001 8.001 0 0 1 1859 44c0-4.41 3.589-8 8-8s8 3.59 8 8a8.002 8.002 0 0 1-3.687 6.736c5.053 1.782 8.686 6.606 8.687 12.262V63a1 1 0 1 1-2 0z"/>
	</g>
</g>
</symbol><symbol id="icon-vk" viewBox="0 0 25 15">
<g><g transform="translate(-1693 -154)">
<path id="tkbqa" d="M1705.227 168.477h1.494c.252-.029.49-.133.682-.299.137-.19.21-.421.206-.657 0 0-.03-2.026.902-2.322.93-.296 2.095 1.938 3.345 2.796.47.376 1.07.55 1.667.482h3.336s1.746-.139.918-1.506a11.163 11.163 0 0 0-2.483-2.874c-2.094-1.946-1.807-1.629.71-4.99 1.529-2.049 2.15-3.3 1.957-3.835a1.5 1.5 0 0 0-1.304-.417h-3.769a.91.91 0 0 0-.485.098 1.053 1.053 0 0 0-.332.435 21.198 21.198 0 0 1-1.39 2.961c-1.667 2.843-2.343 2.993-2.616 2.817-.638-.417-.479-1.654-.479-2.535 0-2.756.417-3.905-.814-4.202a6.431 6.431 0 0 0-1.755-.175 8.12 8.12 0 0 0-3.12.32c-.428.21-.757.676-.556.702.428.038.825.237 1.112.556.26.529.388 1.113.373 1.701 0 0 .22 3.244-.519 3.647-.506.278-1.202-.288-2.695-2.867a23.349 23.349 0 0 1-1.342-2.81 1.111 1.111 0 0 0-.31-.417 1.538 1.538 0 0 0-.578-.233h-3.573c-.265 0-.523.087-.734.247a.78.78 0 0 0-.014.636s2.798 6.596 5.966 9.894a8.66 8.66 0 0 0 6.2 2.847z"/>
</g></g></symbol><symbol id="icon-wallet" viewBox="0 0 30 21">
<g><g transform="translate(-485 -929)">
<path id="ccqba" d="M487.16 937.095l-.367-2.47 17.798-2.64.366 2.469z"/>
<path id="ccqbb" d="M495.52 937.016a.922.922 0 0 0-.93.932v10.728c0 .521.41.931.93.931h17.509c.521 0 .93-.41.93-.931v-10.728a.922.922 0 0 0-.93-.932zm17.509 12.964H495.52a1.32 1.32 0 0 1-1.304-1.304v-10.728a1.32 1.32 0 0 1 1.304-1.304h17.508a1.32 1.32 0 0 1 1.303 1.304v10.728a1.32 1.32 0 0 1-1.303 1.304z"/>
<path id="ccqbc" d="M488.331 944.95c-.596 0-1.117-.446-1.229-1.042l-1.639-10.728a1.395 1.395 0 0 1 .224-.932c.186-.26.484-.447.82-.484l17.432-2.682c.336-.037.634.037.932.224.26.186.447.484.484.82l1.043 6.704c0 .112-.037.187-.15.224-.11 0-.185-.037-.223-.15l-1.043-6.704a.883.883 0 0 0-.335-.56c-.186-.148-.41-.185-.633-.148l-17.433 2.682a.883.883 0 0 0-.56.335c-.148.186-.185.41-.148.633l1.602 10.691a.84.84 0 0 0 .968.708l5.923-.894c.112 0 .186.037.224.15 0 .11-.038.185-.15.223l-5.922.93h-.187z"/>
<path id="ccqbd" d="M500.475 943.051h-4.172a.373.373 0 0 1-.372-.372v-2.943a.4.4 0 0 1 .372-.373h4.21a.4.4 0 0 1 .372.373v2.943c-.037.186-.186.372-.41.372z"/>
<path id="ccqbe" d="M498.39 945.212h-2.46c-.111 0-.186-.075-.186-.187 0-.111.075-.186.187-.186h2.458c.112 0 .186.075.186.186 0 .112-.074.187-.186.187z"/>
<path id="ccqbf" d="M501.48 947.484h-5.55c-.111 0-.186-.075-.186-.186 0-.112.075-.187.187-.187h5.55c.112 0 .186.075.186.187 0 .111-.074.186-.186.186z"/>
<path id="ccqbg" d="M512.284 939.475h-5.55c-.113 0-.187-.074-.187-.186s.074-.186.186-.186h5.55c.112 0 .187.074.187.186s-.075.186-.186.186z"/>
<path id="ccqbh" d="M502.934 945.212h-2.459c-.112 0-.186-.075-.186-.187 0-.111.074-.186.186-.186h2.459c.111 0 .186.075.186.186 0 .112-.112.187-.186.187z"/>
<path id="ccqbi" d="M507.441 945.212h-2.459c-.111 0-.186-.075-.186-.187 0-.111.075-.186.186-.186h2.459c.112 0 .186.075.186.186 0 .112-.074.187-.186.187z"/>
<path id="ccqbj" d="M511.986 945.212h-2.459c-.112 0-.186-.075-.186-.187 0-.111.074-.186.186-.186h2.459c.111 0 .186.075.186.186 0 .112-.112.187-.186.187z"/>
<path id="ccqbk" d="M510.086 947.298a1.006 1.006 0 1 1 2.011 0 1.006 1.006 0 0 1-2.011 0z"/>
<path id="ccqbl" d="M508.707 947.298a1.006 1.006 0 1 1 2.012 0 1.006 1.006 0 0 1-2.012 0z"/>
</g></g></symbol></svg>